<?xml version="1.0" encoding="UTF-8" standalone="no"?>
<!--?xml version="1.0" encoding="utf-8"?-->

<!-- Generator: Adobe Illustrator 18.1.1, SVG Export Plug-In . SVG Version: 6.00 Build 0)  -->

<svg
   version="1.1"
   id="_x32_"
   x="0px"
   y="0px"
   viewBox="0 0 512 512"
   style="width: 512px; height: 512px; opacity: 1;"
   xml:space="preserve"
   sodipodi:docname="ST_Icon.svg"
   inkscape:version="1.4-beta (62f545ba5e, 2024-04-22)"
   inkscape:export-filename="ST_Icon_x256.png"
   inkscape:export-xdpi="48"
   inkscape:export-ydpi="48"
   xmlns:inkscape="http://www.inkscape.org/namespaces/inkscape"
   xmlns:sodipodi="http://sodipodi.sourceforge.net/DTD/sodipodi-0.dtd"
   xmlns="http://www.w3.org/2000/svg"
   xmlns:svg="http://www.w3.org/2000/svg"><defs
   id="defs4" /><sodipodi:namedview
   id="namedview4"
   pagecolor="#ffffff"
   bordercolor="#666666"
   borderopacity="1.0"
   inkscape:showpageshadow="2"
   inkscape:pageopacity="0.0"
   inkscape:pagecheckerboard="0"
   inkscape:deskcolor="#d1d1d1"
   showgrid="false"
   inkscape:zoom="1.1255704"
   inkscape:cx="215.89054"
   inkscape:cy="250.09543"
   inkscape:window-width="1920"
   inkscape:window-height="1009"
   inkscape:window-x="-8"
   inkscape:window-y="-8"
   inkscape:window-maximized="1"
   inkscape:current-layer="_x32_"><inkscape:grid
     id="grid5"
     units="px"
     originx="0"
     originy="0"
     spacingx="1"
     spacingy="1"
     empcolor="#0099e5"
     empopacity="0.30196078"
     color="#0099e5"
     opacity="0.14902"
     empspacing="5"
     enabled="true"
     visible="false" /></sodipodi:namedview>
<style
   type="text/css"
   id="style1">
	.st0{fill:#4B4B4B;}
</style>
<g
   id="g4">
	<path
   class="st0"
   d="M204.987,262.937c0-10.436-8.46-18.889-18.888-18.889c-10.436,0-18.896,8.453-18.896,18.889   c0,10.428,8.46,18.888,18.896,18.888C196.527,281.825,204.987,273.365,204.987,262.937z"
   style="fill:#008ff1;fill-opacity:1"
   id="path1"
   inkscape:label="right eye" />
	<path
   class="st0"
   d="M325.902,244.048c-10.436,0-18.888,8.453-18.888,18.889c0,10.428,8.452,18.888,18.888,18.888   c10.428,0,18.888-8.46,18.888-18.888C344.79,252.501,336.33,244.048,325.902,244.048z"
   style="fill:#008ff1;fill-opacity:1"
   id="path2"
   inkscape:label="left eye" />
	<path
   class="st0"
   d="M494.016,230.848c-10.088-10.11-23.839-16.674-38.993-17.76c-9.458-44.37-33.029-83.5-66.008-112.18   c-36.033-31.351-83.239-50.37-134.745-50.362c-51.44-0.008-98.582,18.954-134.6,50.232c-33.146,28.76-56.821,68.071-66.236,112.666   c-13.75,1.787-26.154,8.091-35.45,17.404C6.893,241.92-0.011,257.357,0,274.27c-0.011,16.905,6.893,32.356,17.984,43.414   c11.066,11.094,26.509,17.991,43.418,17.984c1.198,0,2.327-0.174,3.5-0.246c14.781,35.208,38.956,65.452,69.532,87.459   c33.702,24.273,75.156,38.58,119.837,38.573c44.862,0.007,86.489-14.438,120.264-38.892c30.424-22.022,54.487-52.215,69.185-87.335   c2.258,0.26,4.545,0.441,6.882,0.441c16.906,0.007,32.35-6.89,43.415-17.984c11.094-11.058,17.992-26.509,17.984-43.414   C512.008,257.357,505.11,241.92,494.016,230.848z M284.807,81.593c1.013,1.172,2.066,2.497,3.115,4.082   c4.487,6.788,8.988,17.455,9.025,34.332c0,12.744-2.707,29.128-10.262,49.71c-23.856-19.207-37.545-36.909-45.252-51.491   c-8.388-15.907-9.893-28.202-9.908-35.324c0-0.919,0.044-1.664,0.084-2.403c7.436-0.955,14.962-1.614,22.662-1.614   C264.699,78.886,274.885,79.863,284.807,81.593z M226.394,126.165c4.292,8.127,10.154,16.884,17.792,26.024   c-7.66-3.097-15.338-5.992-22.546-9.046c-12.325-5.196-23.144-11-30.475-18.736c-3.691-3.879-6.586-8.214-8.642-13.461   c-1.693-4.349-2.782-9.422-3.122-15.4c11.122-5.204,22.894-9.198,35.135-12.006C214.619,93.165,216.87,108.153,226.394,126.165z    M473.977,297.645c-6.028,6.006-14.206,9.675-23.376,9.69c-3.799-0.008-7.432-0.68-10.949-1.91l-13.424-4.718l-4.66,13.432   c-12.028,34.6-34.506,64.373-63.649,85.468c-29.158,21.089-64.887,33.5-103.648,33.507c-38.61-0.007-74.186-12.31-103.278-33.232   c-29.082-20.922-51.571-50.471-63.722-84.832l-4.392-12.433l-12.716,3.495c-2.902,0.789-5.808,1.224-8.76,1.224   c-9.176-0.015-17.354-3.684-23.379-9.69c-6.003-6.029-9.672-14.199-9.687-23.376c0.014-9.176,3.684-17.348,9.687-23.383   c6.025-6,14.202-9.669,23.379-9.676c0.579-0.007,1.44,0.044,2.634,0.138l13.146,1.035l1.968-13.048   c6.426-42.561,28-80.164,59.097-107.158c7.773-6.737,16.124-12.809,24.982-18.135c0.767,4.805,1.947,9.306,3.597,13.446   c2.612,6.564,6.281,12.252,10.616,17.108c7.606,8.525,17.13,14.518,27.066,19.432c14.923,7.338,31.047,12.411,44.602,18.736   c6.767,3.148,12.86,6.564,17.868,10.501c5.015,3.959,8.923,8.351,11.709,13.685c1.498,2.887,4.487,4.653,7.736,4.58   c3.257-0.079,6.159-1.982,7.527-4.943c14.691-31.842,19.995-56.897,19.995-76.581c0.022-13.331-2.471-24.15-5.992-32.668   c23.245,7.396,44.456,19.308,62.462,34.954c31.112,27.066,52.664,64.778,59.01,107.426l2.092,14.076l14.069-2.15   c1.867-0.282,3.517-0.434,5.015-0.434c9.169,0.007,17.348,3.676,23.376,9.676c6.007,6.035,9.676,14.206,9.684,23.383   C483.653,283.447,479.984,291.617,473.977,297.645z"
   style="fill:#008ff1;fill-opacity:1"
   id="path3"
   inkscape:label="face" />
	<path
   class="st0"
   d="M303.308,334.987c-2.121-4.342-2.742-8.105-2.757-11.362c0-3.242,0.68-5.985,1.332-7.838   c0.325-0.926,0.636-1.614,0.84-2.026l0.202-0.384l0.007-0.022l-0.022-0.015c2.768-4.646,1.324-10.667-3.293-13.511   c-4.674-2.866-10.776-1.418-13.649,3.25c-0.289,0.47-1.563,2.605-2.8,6.129c-1.238,3.517-2.446,8.453-2.454,14.416   c-0.007,2.461,0.278,5.124,0.782,7.874c-3.419,3.141-7.856,5.92-13.106,7.917c-5.869,2.243-12.658,3.531-19.758,3.531   c-7.092,0-13.88-1.288-19.749-3.531c-5.877-2.236-10.826-5.427-14.351-9.046c-3.836-3.908-10.11-3.974-14.033-0.138   c-3.908,3.828-3.973,10.11-0.137,14.026c5.862,5.971,13.229,10.551,21.45,13.693c8.228,3.133,17.34,4.834,26.82,4.841   c9.48-0.008,18.607-1.701,26.828-4.841c5.084-1.94,9.784-4.502,14.057-7.534c3.42,4.964,7.889,9.915,13.754,14.684   c4.255,3.452,10.501,2.8,13.952-1.447c3.452-4.248,2.808-10.494-1.44-13.953C309.162,344.316,305.45,339.315,303.308,334.987z"
   style="fill:#008ff1;stroke-width:1;stroke-dasharray:none;fill-opacity:1"
   id="path4"
   inkscape:label="mouth" /><path
   class="st0"
   d="m 134.1078,338.73121 c -5.52569,0 -10.0009,4.47573 -10.0009,10.00144 0,5.52146 4.47521,10.00089 10.0009,10.00089 5.52147,0 10.00091,-4.47943 10.00091,-10.00089 0,-5.52571 -4.47944,-10.00144 -10.00091,-10.00144 z"
   style="opacity:1;fill:#008ff1;fill-opacity:1;stroke-width:0.529;stroke-dasharray:none"
   id="path2-4"
   inkscape:label="mole" />
</g>
</svg>
